<svg width="224" height="66" viewBox="0 0 224 66" fill="none" xmlns="http://www.w3.org/2000/svg">
<path d="M66.8326 49.2564C66.1003 49.2564 65.3979 48.9671 64.8801 48.4521C64.3622 47.9372 64.0713 47.2387 64.0713 46.5105C64.0713 38.8985 61.0306 31.5983 55.618 26.2159C50.2055 20.8334 42.8644 17.8096 35.2099 17.8096C27.5554 17.8096 20.2144 20.8334 14.8019 26.2159C9.3893 31.5983 6.34854 38.8985 6.34854 46.5105C6.35914 46.8775 6.29559 47.243 6.16165 47.5852C6.02771 47.9275 5.8261 48.2395 5.56875 48.5029C5.3114 48.7662 5.00354 48.9756 4.66339 49.1186C4.32324 49.2615 3.9577 49.3352 3.58842 49.3352C3.21913 49.3352 2.8536 49.2615 2.51345 49.1186C2.1733 48.9756 1.86544 48.7662 1.60809 48.5029C1.35074 48.2395 1.14913 47.9275 1.01519 47.5852C0.881244 47.243 0.817688 46.8775 0.828286 46.5105C0.828286 27.6578 16.2518 12.32 35.2099 12.32C54.1681 12.32 69.5916 27.6578 69.5916 46.5105C69.5916 47.2383 69.301 47.9364 68.7836 48.4513C68.2663 48.9662 67.5645 49.2558 66.8326 49.2564Z" fill="white"/>
<path d="M50.9882 49.2157H37.0727C36.7526 49.2156 36.4393 49.1239 36.1703 48.9515C35.9012 48.7791 35.6877 48.5333 35.5553 48.2435C35.4229 47.9537 35.3772 47.6322 35.4236 47.3173C35.4701 47.0023 35.6067 46.7073 35.8172 46.4675L37.6368 44.3821C39.5019 42.2559 41.3897 40.0845 43.2457 37.9358L45.7477 35.0383C46.2339 34.4615 46.9215 34.089 47.6724 33.9954C48.4234 33.9019 49.1821 34.0942 49.7963 34.5339C50.1171 34.7743 50.3848 35.0777 50.5828 35.4252C50.7808 35.7727 50.905 36.1569 50.9477 36.554C50.9903 36.9512 50.9505 37.3528 50.8307 37.7341C50.7109 38.1153 50.5137 38.468 50.2513 38.7704C49.4051 39.7445 48.5499 40.7329 47.6856 41.7357L46.2617 43.3823H51.0678C51.4694 43.3824 51.8666 43.4644 52.235 43.6233C52.6034 43.7823 52.9351 44.0147 53.2095 44.3062C53.4839 44.5978 53.6952 44.9422 53.8304 45.3183C53.9655 45.6943 54.0216 46.094 53.9951 46.4924C53.9289 47.2387 53.583 47.933 53.026 48.4375C52.469 48.942 51.7416 49.2197 50.9882 49.2157Z" fill="white"/>
<path d="M22.352 52.975C21.6292 52.9758 20.9317 52.7108 20.3937 52.2308C19.1904 51.1564 19.1495 49.2904 20.2049 48.0712C21.0252 47.1227 21.8592 46.1622 22.7068 45.1896L24.1307 43.543H19.4133C18.6577 43.5528 17.9262 43.2788 17.3649 42.7756C16.8037 42.2724 16.4541 41.5771 16.3859 40.8287C16.3595 40.4301 16.4156 40.0304 16.5507 39.6542C16.6858 39.2781 16.897 38.9335 17.1714 38.6418C17.4458 38.35 17.7775 38.1174 18.1459 37.9582C18.5143 37.7991 18.9116 37.7167 19.3133 37.7164H33.3288C33.6489 37.7165 33.9622 37.8082 34.2313 37.9806C34.5003 38.153 34.7138 38.3988 34.8462 38.6885C34.9786 38.9783 35.0243 39.2999 34.9779 39.6148C34.9315 39.9298 34.7948 40.2247 34.5844 40.4645L32.7648 42.5523C30.8997 44.6784 29.0118 46.8498 27.1558 48.9963L24.5856 51.9684C24.3086 52.2868 23.9655 52.5417 23.5799 52.7155C23.1943 52.8893 22.7754 52.9778 22.352 52.975Z" fill="white"/>
<path d="M202.342 24.5048C203.763 24.5048 204.569 23.8669 204.994 23.3309C205.504 22.7146 205.785 21.9419 205.788 21.1436C205.786 20.3313 205.506 19.5438 204.994 18.9112C204.569 18.3751 203.763 17.7372 202.342 17.7372C200.92 17.7372 200.113 18.3751 199.69 18.9089C199.177 19.5422 198.896 20.3304 198.894 21.1436C198.898 21.9424 199.178 22.7155 199.687 23.3331C200.12 23.8647 200.918 24.5048 202.342 24.5048Z" fill="white"/>
<path d="M94.9617 43.3507H87.0464C88.4793 41.7199 89.9578 40.0257 91.4567 38.3044L96.9155 32.0368C97.3406 31.581 97.5769 30.9824 97.5774 30.3608C97.5857 29.9944 97.5078 29.6311 97.35 29.2999C97.1874 28.9549 96.9551 28.647 96.6676 28.3952C96.1993 27.9958 95.6037 27.7746 94.9867 27.7709H81.3897C81.0413 27.7607 80.6945 27.82 80.3696 27.9455C80.0448 28.071 79.7486 28.2601 79.4986 28.5015C79.2485 28.7429 79.0498 29.0317 78.914 29.3509C78.7783 29.6701 78.7084 30.0131 78.7084 30.3596C78.7084 30.7062 78.7783 31.0492 78.914 31.3684C79.0498 31.6875 79.2485 31.9764 79.4986 32.2178C79.7486 32.4592 80.0448 32.6482 80.3696 32.7737C80.6945 32.8992 81.0413 32.9586 81.3897 32.9483H89.2413C87.7993 34.5905 86.3367 36.271 84.8765 37.9629C83.0114 40.1222 81.2031 42.2084 79.4518 44.2215C79.2221 44.4712 79.0454 44.7644 78.9322 45.0836C78.819 45.4027 78.7716 45.7413 78.7928 46.079C78.814 46.4168 78.9035 46.7468 79.0558 47.0495C79.2081 47.3521 79.4201 47.6211 79.6792 47.8405C80.1274 48.2758 80.7291 48.5194 81.3555 48.5191H94.964C95.3123 48.5293 95.6592 48.4699 95.984 48.3444C96.3088 48.2189 96.605 48.0299 96.8551 47.7885C97.1051 47.5471 97.3039 47.2583 97.4396 46.9391C97.5753 46.6199 97.6453 46.2769 97.6453 45.9303C97.6453 45.5838 97.5753 45.2408 97.4396 44.9216C97.3039 44.6024 97.1051 44.3136 96.8551 44.0722C96.605 43.8308 96.3088 43.6418 95.984 43.5163C95.6592 43.3908 95.3123 43.3314 94.964 43.3416L94.9617 43.3507Z" fill="white"/>
<path d="M119.169 29.8473C118.163 28.9358 116.981 28.2357 115.696 27.789C113.13 26.8939 110.331 26.9083 107.774 27.8297C107.268 28.0115 106.777 28.2339 106.307 28.4947V20.3519C106.317 20.001 106.257 19.6517 106.129 19.3245C106.001 18.9973 105.808 18.6989 105.563 18.4471C105.317 18.1952 105.022 17.995 104.697 17.8583C104.372 17.7216 104.023 17.6511 103.67 17.6511C103.317 17.6511 102.967 17.7216 102.642 17.8583C102.317 17.995 102.023 18.1952 101.777 18.4471C101.531 18.6989 101.338 18.9973 101.21 19.3245C101.083 19.6517 101.022 20.001 101.032 20.3519V38.1257C100.998 39.7865 101.322 41.4354 101.981 42.9616C102.561 44.2679 103.399 45.4454 104.444 46.4245C105.448 47.3476 106.633 48.0552 107.924 48.5032C110.425 49.3887 113.157 49.3887 115.658 48.5032C116.949 48.0594 118.136 47.3591 119.147 46.4449C120.205 45.47 121.047 44.2858 121.619 42.9684C122.859 39.8695 122.859 36.4159 121.619 33.317C121.055 32.0032 120.22 30.8213 119.169 29.8473ZM117.279 38.1325C117.302 39.0406 117.143 39.9441 116.811 40.7902C116.539 41.4615 116.126 42.0676 115.601 42.568C115.108 43.0247 114.522 43.371 113.883 43.5836C112.535 44.0395 111.074 44.0395 109.726 43.5836C109.091 43.3682 108.509 43.0213 108.02 42.5658C107.489 42.0593 107.07 41.4495 106.787 40.7744C106.443 39.9115 106.28 38.9879 106.307 38.0601C106.283 37.1622 106.446 36.269 106.785 35.4364C107.048 34.7978 107.448 34.2235 107.955 33.7527C108.463 33.2819 109.067 32.9257 109.726 32.7085C110.391 32.4823 111.09 32.3669 111.793 32.367C112.509 32.3652 113.219 32.4806 113.897 32.7085C114.532 32.9232 115.115 33.2667 115.61 33.7173C116.133 34.2085 116.543 34.8065 116.811 35.4703C117.144 36.3178 117.303 37.2229 117.279 38.1325Z" fill="white"/>
<path d="M143.029 29.8473C142.023 28.9352 140.841 28.2351 139.556 27.789C137.041 26.9057 134.298 26.9057 131.784 27.789C130.457 28.2429 129.241 28.9683 128.214 29.9186C127.187 30.8688 126.371 32.0226 125.82 33.3056C125.175 34.8316 124.858 36.4752 124.892 38.1302C124.859 39.7912 125.183 41.44 125.843 42.9661C126.422 44.2729 127.26 45.4505 128.306 46.429C129.309 47.3526 130.493 48.0602 131.784 48.5077C134.285 49.3932 137.016 49.3932 139.517 48.5077C140.81 48.0591 141.998 47.3534 143.009 46.4336C144.067 45.4586 144.909 44.2745 145.481 42.9571C146.721 39.8574 146.721 36.4031 145.481 33.3034C144.915 31.994 144.08 30.8167 143.029 29.8473ZM141.141 38.1325C141.16 39.0411 140.998 39.9444 140.664 40.7902C140.391 41.4617 139.978 42.0677 139.451 42.568C138.959 43.0247 138.374 43.371 137.736 43.5836C136.387 44.0393 134.925 44.0393 133.576 43.5836C132.942 43.3687 132.361 43.0217 131.872 42.5658C131.341 42.0601 130.92 41.4501 130.637 40.7744C130.297 39.9341 130.134 39.0334 130.158 38.128C130.135 37.22 130.295 36.3166 130.626 35.4703C130.894 34.8059 131.305 34.2077 131.829 33.7173C132.327 33.2656 132.914 32.9227 133.553 32.7108C134.909 32.2524 136.379 32.2524 137.734 32.7108C138.374 32.9221 138.962 33.2651 139.46 33.7173C139.985 34.2077 140.395 34.8059 140.664 35.4703C140.996 36.318 141.155 37.223 141.132 38.1325H141.141Z" fill="white"/>
<path d="M167.564 29.8473C166.558 28.9357 165.376 28.2357 164.091 27.789C161.576 26.9057 158.834 26.9057 156.319 27.789C154.992 28.2429 153.776 28.9683 152.749 29.9186C151.722 30.8688 150.906 32.0226 150.355 33.3056C149.709 34.8314 149.392 36.475 149.425 38.1302C149.392 39.7912 149.716 41.44 150.376 42.9661C150.955 44.2729 151.793 45.4505 152.839 46.429C153.842 47.3531 155.027 48.0608 156.319 48.5077C158.82 49.3932 161.551 49.3932 164.052 48.5077C165.346 48.0625 166.535 47.3607 167.548 46.4449C168.605 45.4687 169.447 44.2849 170.021 42.9684C171.258 39.8681 171.258 36.415 170.021 33.3147C169.453 32.0017 168.616 30.8208 167.564 29.8473ZM165.674 38.1325C165.697 39.0406 165.538 39.9441 165.206 40.7902C164.933 41.4611 164.52 42.0669 163.995 42.568C163.503 43.0247 162.917 43.371 162.278 43.5836C160.929 44.0393 159.467 44.0393 158.118 43.5836C157.484 43.3677 156.904 43.0208 156.414 42.5658C155.883 42.0599 155.463 41.4499 155.182 40.7744C154.842 39.9341 154.678 39.0334 154.702 38.128C154.679 37.2199 154.838 36.3163 155.17 35.4703C155.439 34.8065 155.848 34.2084 156.371 33.7173C156.869 33.2651 157.458 32.9221 158.098 32.7108C159.453 32.2524 160.923 32.2524 162.278 32.7108C162.918 32.9216 163.505 33.2646 164.002 33.7173C164.527 34.2077 164.937 34.8059 165.206 35.4703C165.539 36.3177 165.698 37.2229 165.674 38.1325Z" fill="white"/>
<path d="M192.015 29.8292C191.003 28.9099 189.814 28.2043 188.519 27.755C186.013 26.8729 183.277 26.8729 180.77 27.755C179.477 28.2035 178.291 28.9119 177.286 29.836C176.238 30.8131 175.4 31.9901 174.82 33.2966C174.158 34.8223 173.833 36.4713 173.867 38.1325V46.5534C173.857 46.9043 173.917 47.2537 174.045 47.5809C174.173 47.9081 174.366 48.2065 174.611 48.4583C174.857 48.7102 175.152 48.9104 175.477 49.0471C175.802 49.1838 176.151 49.2542 176.504 49.2542C176.857 49.2542 177.207 49.1838 177.532 49.0471C177.857 48.9104 178.151 48.7102 178.397 48.4583C178.643 48.2065 178.836 47.9081 178.964 47.5809C179.091 47.2537 179.152 46.9043 179.142 46.5534V38.1325C179.118 37.227 179.282 36.3264 179.622 35.4861C179.905 34.8114 180.325 34.2022 180.857 33.697C181.345 33.241 181.926 32.894 182.56 32.6791C183.908 32.2233 185.37 32.2233 186.718 32.6791C187.357 32.8909 187.943 33.2373 188.435 33.6947C188.966 34.2001 189.386 34.8093 189.668 35.4838C190.01 36.3238 190.174 37.2246 190.15 38.1302V46.5512C190.147 46.8918 190.211 47.2297 190.339 47.5457C190.467 47.8616 190.656 48.1493 190.896 48.3923C191.138 48.6432 191.429 48.842 191.752 48.9762C192.074 49.1104 192.421 49.1773 192.771 49.1727C193.118 49.1758 193.462 49.11 193.784 48.9791C194.105 48.8483 194.397 48.6549 194.642 48.4104C194.892 48.1691 195.091 47.88 195.225 47.5605C195.359 47.2409 195.427 46.8976 195.425 46.5512V38.1325C195.457 36.4766 195.141 34.8323 194.495 33.3057C193.921 31.9879 193.076 30.8038 192.015 29.8292Z" fill="white"/>
<path d="M204.08 27.8976C203.711 27.5309 203.241 27.2811 202.729 27.18C202.217 27.0788 201.687 27.1308 201.205 27.3293C200.723 27.5278 200.311 27.8639 200.021 28.2952C199.731 28.7265 199.576 29.2335 199.576 29.7523V46.5512C199.566 46.9021 199.626 47.2515 199.754 47.5787C199.882 47.9059 200.075 48.2043 200.32 48.4561C200.566 48.708 200.861 48.9082 201.186 49.0449C201.511 49.1816 201.86 49.252 202.213 49.252C202.566 49.252 202.916 49.1816 203.241 49.0449C203.566 48.9082 203.86 48.708 204.106 48.4561C204.352 48.2043 204.545 47.9059 204.673 47.5787C204.8 47.2515 204.861 46.9021 204.851 46.5512V29.7546C204.854 29.4094 204.787 29.0671 204.655 28.7481C204.523 28.4291 204.327 28.1398 204.08 27.8976Z" fill="white"/>
</svg>
